# xmcd
#
# Track frame offsets:
#	182
#	12660
#	22410
#	30165
#	38442
#	49522
#	61445
#	71510
#	82105
#	94850
#	104915
#	114825
#	124647
#	132990
#	143190
#	153227
#	161567
#	170695
#
# Disc length: 2422 seconds
# Revision: 5
# Processed by: cddbd v1.5.2PL0 Copyright (c) Steve Scherf et al.
# Submitted via: dBpowerAMP V12.0
#
DISCID=f3097412
DTITLE=Johnny Cash - Johnny Cash
DYEAR=1985
DGENRE=Country
TTITLE0=I Walk the Line
TTITLE1=Born to Lose
TTITLE2=Hey Good Lookin'
TTITLE3=Guess Things Happen That Way
TTITLE4=Oh Lonesome Me
TTITLE5=You're the Nearest Thing to Heaven
TTITLE6=Get Rhythm
TTITLE7=You Win Again
TTITLE8=Folsom Prison Blues
TTITLE9=I Could Never Be Ashamed of You
TTITLE10=Ballad of a Teenage Queen
TTITLE11=Rock Island Line
TTITLE12=Country Boy
TTITLE13=The Ways of a Woman in Love
TTITLE14=Hey Porter
TTITLE15=The Wreck of the Old '97
TTITLE16=I Couldn't Keep from Crying
TTITLE17=I Love You Because
EXTD=
EXTT0=
EXTT1=
EXTT2=
EXTT3=
EXTT4=
EXTT5=
EXTT6=
EXTT7=
EXTT8=
EXTT9=
EXTT10=
EXTT11=
EXTT12=
EXTT13=
EXTT14=
EXTT15=
EXTT16=
EXTT17=
PLAYORDER=
